# xmcd
# 
# Track frame offsets:
#     150
#     15851
#     36475
#     53056
#     69360
#     84301
#     98603
#     112347
#     135354
#     154808
#     167616
#     180892
#     201872
# 
# Disc length: 2923
# 
# Revision: 0
# Processed by: cddbd v1.5.2PL0 Copyright (c) Steve Scherf et al.
# Submitted via: fre:ac v1.0.31
# 
DISCID=990b690d
DTITLE=Svøbsk - En Klang Af Tidløshed
DYEAR=2009
DGENRE=Folk
TTITLE0=Hindsholm
TTITLE1=Den Gamle Bornholmer
TTITLE2=Villy's Tune/Old King Cole/The Jolly Hornpipe
TTITLE3=Et Strejf Af Stilhed
TTITLE4=Sommerfuglen
TTITLE5=Cirkushest
TTITLE6=Air
TTITLE7=Sinken/Vægtløs
TTITLE8=Tabor
TTITLE9=Dragen/Den Lille Dreng
TTITLE10=Jeg Kan Se På Dine Øjne
TTITLE11=De Lyse Nætter
TTITLE12=Oktobervalsen
EXTD=
EXTT0=
EXTT1=
EXTT2=
EXTT3=
EXTT4=
EXTT5=
EXTT6=
EXTT7=
EXTT8=
EXTT9=
EXTT10=
EXTT11=
EXTT12=
PLAYORDER=
